<svg width="18" height="20" viewBox="0 0 18 20" fill="none" xmlns="http://www.w3.org/2000/svg">
<path d="M1 1H2.72508C3.32716 1 3.6282 1 3.86745 1.13194C3.9661 1.18635 4.05548 1.25613 4.13219 1.33864C4.31821 1.53875 4.39123 1.83079 4.53725 2.4149L4.72996 3.18573C4.83721 3.61476 4.89084 3.82928 4.97363 4.00924C5.26098 4.63399 5.83323 5.08078 6.50903 5.20805C6.70369 5.2447 6.92482 5.2447 7.36705 5.2447" stroke="#1F1F1F" stroke-width="0.7" stroke-linecap="round"/>
<path d="M15.8566 14.7953H4.76828C4.61314 14.7953 4.53557 14.7953 4.47672 14.7888C3.85318 14.7189 3.42604 14.1263 3.55699 13.5127C3.56934 13.4548 3.59388 13.3812 3.64293 13.234C3.6974 13.0706 3.72463 12.9889 3.75473 12.9169C4.06277 12.1787 4.75964 11.6763 5.55734 11.6175C5.63525 11.6118 5.72137 11.6118 5.89361 11.6118H11.6119" stroke="#1F1F1F" stroke-width="0.7" stroke-linecap="round" stroke-linejoin="round"/>
<path d="M12.1719 11.6117H8.40096C7.11065 11.6117 6.4655 11.6117 5.96786 11.3194C5.7577 11.196 5.57036 11.0374 5.41407 10.8503C5.044 10.4075 4.93794 9.77107 4.72582 8.49841C4.51089 7.20879 4.40342 6.56399 4.65854 6.0864C4.76504 5.88702 4.91279 5.71262 5.09193 5.57479C5.52108 5.24463 6.17478 5.24463 7.48219 5.24463H14.5447C16.0839 5.24463 16.8534 5.24463 17.1645 5.74791C17.4755 6.2512 17.1314 6.93951 16.4431 8.3161L15.9685 9.26532C15.3977 10.4069 15.1123 10.9777 14.5994 11.2947C14.0865 11.6117 13.4483 11.6117 12.1719 11.6117V11.6117Z" stroke="#1F1F1F" stroke-width="0.7" stroke-linecap="round"/>
<path d="M15.5065 17.9789C15.5065 18.3717 15.1881 18.6901 14.7953 18.6901C14.4025 18.6901 14.0841 18.3717 14.0841 17.9789C14.0841 17.5861 14.4025 17.2677 14.7953 17.2677C15.1881 17.2677 15.5065 17.5861 15.5065 17.9789Z" stroke="#1F1F1F" stroke-width="0.7"/>
<path d="M7.01698 17.9789C7.01698 18.3717 6.69858 18.6901 6.3058 18.6901C5.91303 18.6901 5.59463 18.3717 5.59463 17.9789C5.59463 17.5861 5.91303 17.2677 6.3058 17.2677C6.69858 17.2677 7.01698 17.5861 7.01698 17.9789Z" stroke="#1F1F1F" stroke-width="0.7"/>
</svg>
