<svg width="19" height="20" viewBox="0 0 19 20" fill="none" xmlns="http://www.w3.org/2000/svg">
<path d="M1.36011 0.980011H3.08519C3.68727 0.980011 3.98831 0.980011 4.22755 1.11195C4.32621 1.16636 4.41558 1.23614 4.49229 1.31865C4.67832 1.51876 4.75134 1.81081 4.89736 2.39491L5.09007 3.16574C5.19732 3.59477 5.25095 3.80929 5.33373 3.98925C5.62109 4.614 6.19334 5.06079 6.86914 5.18806C7.0638 5.22471 7.28493 5.22471 7.72716 5.22471" stroke="#FF26BA" stroke-linecap="round"/>
<path d="M16.2166 14.7753H5.12826C4.97312 14.7753 4.89556 14.7753 4.83671 14.7687C4.21317 14.6989 3.78603 14.1062 3.91697 13.4927C3.92933 13.4347 3.95386 13.3612 4.00292 13.214C4.05739 13.0506 4.08462 12.9689 4.11471 12.8968C4.42275 12.1587 5.11963 11.6563 5.91732 11.5975C5.99523 11.5918 6.08136 11.5918 6.2536 11.5918H11.9719" stroke="#FF26BA" stroke-linecap="round" stroke-linejoin="round"/>
<path d="M12.5321 11.5918H8.76106C7.47076 11.5918 6.8256 11.5918 6.32797 11.2995C6.11781 11.1761 5.93047 11.0175 5.77418 10.8304C5.40411 10.3875 5.29804 9.75116 5.08592 8.47849C4.87099 7.18888 4.76353 6.54408 5.01865 6.06648C5.12514 5.86711 5.27289 5.6927 5.45204 5.55488C5.88119 5.22472 6.53488 5.22472 7.8423 5.22472H14.9048C16.444 5.22472 17.2135 5.22472 17.5246 5.728C17.8356 6.23128 17.4915 6.91959 16.8032 8.29618L16.3286 9.24541C15.7578 10.387 15.4724 10.9578 14.9595 11.2748C14.4466 11.5918 13.8084 11.5918 12.5321 11.5918V11.5918Z" stroke="#FF26BA" stroke-linecap="round"/>
<path d="M15.7166 17.9588C15.7166 18.2687 15.4653 18.52 15.1554 18.52C14.8455 18.52 14.5942 18.2687 14.5942 17.9588C14.5942 17.6489 14.8455 17.3976 15.1554 17.3976C15.4653 17.3976 15.7166 17.6489 15.7166 17.9588Z" stroke="#FF26BA"/>
<path d="M7.22709 17.9588C7.22709 18.2687 6.97584 18.52 6.66591 18.52C6.35598 18.52 6.10474 18.2687 6.10474 17.9588C6.10474 17.6489 6.35598 17.3976 6.66591 17.3976C6.97584 17.3976 7.22709 17.6489 7.22709 17.9588Z" stroke="#FF26BA"/>
</svg>
