<svg width="42" height="26" viewBox="0 0 42 26" fill="none" xmlns="http://www.w3.org/2000/svg">
<path d="M18.3464 16.2285C18.3464 16.8262 18.3054 17.4121 18.2234 17.9863C18.1531 18.5605 18.1003 19.1465 18.0652 19.7441C17.9832 19.6621 17.8894 19.5977 17.7839 19.5508C17.6902 19.4922 17.5906 19.4629 17.4851 19.4629C17.3562 19.4629 17.2332 19.5039 17.116 19.5859C16.9988 19.668 16.9402 19.7734 16.9402 19.9023C16.9402 20.043 17.0046 20.1367 17.1335 20.1836C17.2742 20.2305 17.4148 20.2539 17.5554 20.2539C17.6726 20.2539 17.7546 20.248 17.8015 20.2363C17.8015 20.377 17.7605 20.5234 17.6785 20.6758C17.6082 20.8164 17.5144 20.957 17.3972 21.0977C17.2917 21.2383 17.1746 21.373 17.0457 21.502C16.9285 21.6191 16.823 21.7246 16.7292 21.8184C16.6589 21.8887 16.5828 21.9883 16.5007 22.1172C16.4187 22.2461 16.325 22.375 16.2195 22.5039C16.1257 22.6211 16.0261 22.7266 15.9207 22.8203C15.8152 22.9023 15.7097 22.9434 15.6042 22.9434C15.4871 22.9434 15.3933 22.9141 15.323 22.8555C15.2527 22.7852 15.1707 22.75 15.0769 22.75C14.948 22.75 14.866 22.8203 14.8308 22.9609C14.8074 23.0898 14.7957 23.2188 14.7957 23.3477V23.5586C14.7957 23.6172 14.6726 23.6934 14.4265 23.7871C14.1804 23.8809 13.8816 23.9863 13.53 24.1035C13.1902 24.209 12.8328 24.3203 12.4578 24.4375C12.0945 24.543 11.7898 24.6484 11.5437 24.7539C11.0632 24.9531 10.5769 25.1172 10.0847 25.2461C9.59253 25.375 9.08276 25.4395 8.55542 25.4395C8.1687 25.4395 7.7937 25.3867 7.43042 25.2812C7.07886 25.1875 6.72144 25.082 6.35815 24.9648C6.00659 24.8359 5.64917 24.7246 5.28589 24.6309C4.93433 24.5254 4.56519 24.4727 4.17847 24.4727C4.02612 24.4727 3.8269 24.4961 3.58081 24.543C3.33472 24.5898 3.14722 24.6602 3.01831 24.7539C2.95972 24.8008 2.90112 24.8828 2.84253 25C2.78394 25.1289 2.71362 25.1934 2.63159 25.1934C2.573 25.1934 2.49097 25.1699 2.3855 25.123C2.28003 25.0762 2.20386 25.041 2.15698 25.0176C1.88745 24.877 1.65894 24.6953 1.47144 24.4727C1.28394 24.2383 1.12573 23.9863 0.996826 23.7168C0.86792 23.4473 0.77417 23.166 0.715576 22.873C0.656982 22.5684 0.627686 22.2754 0.627686 21.9941C0.627686 21.7949 0.645264 21.6016 0.68042 21.4141C0.727295 21.2148 0.750732 21.0156 0.750732 20.8164C0.750732 20.5352 0.715576 20.2598 0.645264 19.9902C0.58667 19.7207 0.557373 19.4453 0.557373 19.1641C0.557373 18.9648 0.58667 18.7656 0.645264 18.5664C0.715576 18.3672 0.750732 18.168 0.750732 17.9688C0.750732 17.8164 0.715576 17.6758 0.645264 17.5469C0.574951 17.4062 0.539795 17.2598 0.539795 17.1074C0.539795 17.002 0.574951 16.9141 0.645264 16.8438C0.727295 16.7734 0.768311 16.6914 0.768311 16.5977C0.768311 16.457 0.762451 16.3164 0.750732 16.1758C0.739014 16.0352 0.733154 15.8945 0.733154 15.7539C0.733154 15.6836 0.733154 15.584 0.733154 15.4551C0.744873 15.3145 0.762451 15.1797 0.785889 15.0508C0.809326 14.9219 0.850342 14.8105 0.908936 14.7168C0.967529 14.623 1.04956 14.5762 1.15503 14.5762C1.36597 14.5762 1.5769 14.7109 1.78784 14.9805C2.0105 15.2383 2.20972 15.543 2.3855 15.8945C2.573 16.2461 2.72534 16.5977 2.84253 16.9492C2.95972 17.3008 3.01831 17.5645 3.01831 17.7402C3.01831 17.7988 2.99487 17.8574 2.948 17.916C2.90112 17.9629 2.84253 17.9863 2.77222 17.9863C2.81909 18.0684 2.87183 18.1914 2.93042 18.3555C2.98901 18.5195 3.01831 18.6484 3.01831 18.7422C3.01831 18.8828 2.99487 19.0176 2.948 19.1465C2.91284 19.2754 2.89526 19.4102 2.89526 19.5508C2.89526 19.668 2.9187 19.7793 2.96558 19.8848C3.02417 19.9902 3.08276 20.0898 3.14136 20.1836C3.23511 20.3242 3.31714 20.4297 3.38745 20.5C3.45776 20.5703 3.53394 20.623 3.61597 20.6582C3.698 20.6816 3.78589 20.6992 3.87964 20.7109C3.98511 20.7227 4.11987 20.7344 4.28394 20.7461C4.51831 21.0859 4.78198 21.4023 5.07495 21.6953C5.36792 21.9883 5.68433 22.252 6.02417 22.4863C6.55151 22.6035 7.073 22.6973 7.58862 22.7676C8.10425 22.8379 8.62573 22.873 9.15308 22.873C9.58667 22.873 9.96167 22.8262 10.2781 22.7324C10.6062 22.6387 10.905 22.5156 11.1746 22.3633C11.4558 22.2109 11.7253 22.041 11.9832 21.8535C12.241 21.6543 12.5105 21.4492 12.7917 21.2383C12.991 21.0977 13.2019 20.9629 13.4246 20.834C13.6472 20.7051 13.864 20.5703 14.075 20.4297C14.2859 20.2891 14.4851 20.1367 14.6726 19.9727C14.8601 19.7969 15.0183 19.5977 15.1472 19.375C15.2292 19.2344 15.3464 19.0938 15.4988 18.9531C15.6628 18.8008 15.7449 18.6367 15.7449 18.4609C15.7449 18.3906 15.739 18.3379 15.7273 18.3027C15.6804 17.9277 15.6453 17.5645 15.6218 17.2129C15.6101 16.8496 15.5925 16.4805 15.5691 16.1055C15.5457 15.7539 15.4695 15.4902 15.3406 15.3145C15.2117 15.127 15.0476 14.9746 14.8484 14.8574C14.6609 14.7285 14.4558 14.6055 14.2332 14.4883C14.0105 14.3711 13.7937 14.207 13.5828 13.9961C13.3601 13.7734 13.1082 13.6328 12.8269 13.5742C12.5574 13.5156 12.2761 13.4805 11.9832 13.4688C11.6902 13.457 11.3972 13.4395 11.1042 13.416C10.823 13.3809 10.5593 13.2695 10.3132 13.082C10.2429 13.0352 10.1843 13.0117 10.1375 13.0117C10.032 13.0117 9.92651 13.0469 9.82104 13.1172C9.72729 13.1758 9.62183 13.2051 9.50464 13.2051C9.32886 13.2051 9.14722 13.1816 8.95972 13.1348C8.78394 13.0879 8.60815 13.0352 8.43237 12.9766C8.25659 12.918 8.08081 12.8594 7.90503 12.8008C7.72925 12.7422 7.55347 12.7012 7.37769 12.6777C7.14331 12.6426 6.94995 12.6191 6.79761 12.6074C6.65698 12.5957 6.52222 12.5781 6.39331 12.5547C6.27612 12.5195 6.14722 12.4727 6.00659 12.4141C5.86597 12.3438 5.69019 12.2383 5.47925 12.0977C4.86987 11.6992 4.21948 11.4062 3.52808 11.2188C3.39917 10.8906 3.22925 10.5566 3.01831 10.2168C2.8894 10.1348 2.7605 10.0586 2.63159 9.98828C2.5144 9.90625 2.39722 9.81836 2.28003 9.72461C2.20972 9.60742 2.11597 9.40234 1.99878 9.10938C1.89331 8.81641 1.78784 8.50586 1.68237 8.17773C1.5769 7.83789 1.48315 7.52148 1.40112 7.22852C1.33081 6.93555 1.29565 6.72461 1.29565 6.5957C1.29565 6.32617 1.32495 6.06836 1.38354 5.82227C1.44214 5.57617 1.5769 5.35352 1.78784 5.1543C1.823 5.13086 1.86401 5.10156 1.91089 5.06641C1.96948 5.01953 1.99878 4.9668 1.99878 4.9082C1.99878 4.84961 1.9519 4.80859 1.85815 4.78516C1.77612 4.75 1.73511 4.68555 1.73511 4.5918C1.73511 4.58008 1.74097 4.5625 1.75269 4.53906C1.7644 4.50391 1.77026 4.47461 1.77026 4.45117C1.85229 4.19336 1.97534 3.94727 2.1394 3.71289C2.30347 3.47852 2.49097 3.25586 2.7019 3.04492C2.91284 2.83398 3.12964 2.64062 3.35229 2.46484C3.58667 2.27734 3.80933 2.10742 4.02026 1.95508C4.17261 1.84961 4.30151 1.71484 4.40698 1.55078C4.52417 1.38672 4.64722 1.26953 4.77612 1.19922C4.85815 1.19922 4.94019 1.19922 5.02222 1.19922C5.10425 1.1875 5.18628 1.18164 5.26831 1.18164C5.36206 1.18164 5.44409 1.1875 5.5144 1.19922C5.59644 1.19922 5.68433 1.19922 5.77808 1.19922C5.90698 1.15234 5.99487 1.09961 6.04175 1.04102C6.08862 0.970703 6.1355 0.90625 6.18237 0.847656C6.22925 0.789063 6.28784 0.742188 6.35815 0.707031C6.44019 0.671875 6.58081 0.654297 6.78003 0.654297C6.90894 0.654297 7.03784 0.660156 7.16675 0.671875C7.29565 0.671875 7.42456 0.671875 7.55347 0.671875C7.99878 0.671875 8.43823 0.666016 8.87183 0.654297C9.31714 0.642578 9.76245 0.636719 10.2078 0.636719C10.5242 0.636719 10.8347 0.642578 11.1394 0.654297C11.4558 0.654297 11.7722 0.677734 12.0886 0.724609C12.2996 0.748047 12.5046 0.794922 12.7039 0.865234C12.9031 0.923828 13.114 0.953125 13.3367 0.953125C13.5476 0.953125 13.6941 0.912109 13.7761 0.830078C13.8699 0.748047 13.9402 0.660156 13.9871 0.566406C14.0457 0.472656 14.1101 0.384766 14.1804 0.302734C14.2507 0.220703 14.3738 0.179688 14.5496 0.179688C14.7957 0.179688 15.0476 0.244141 15.3054 0.373047C15.575 0.501953 15.8269 0.607422 16.0613 0.689453L16.0437 0.759766C16.0085 0.865234 15.991 0.982422 15.991 1.11133C15.991 1.31055 16.0203 1.50977 16.0789 1.70898C16.1492 1.89648 16.2195 2.08398 16.2898 2.27148C16.3601 2.45898 16.4246 2.64648 16.4832 2.83398C16.5535 3.02148 16.5886 3.2207 16.5886 3.43164C16.5886 3.56055 16.5769 3.68359 16.5535 3.80078C16.53 3.90625 16.5183 4.02344 16.5183 4.15234C16.5183 4.38672 16.5652 4.55664 16.6589 4.66211C16.7527 4.75586 16.7996 4.84375 16.7996 4.92578C16.7996 5.01953 16.7585 5.10156 16.6765 5.17188C16.5945 5.23047 16.5535 5.32422 16.5535 5.45312C16.5535 5.75781 16.571 6.0625 16.6062 6.36719C16.6414 6.66016 16.6589 6.95898 16.6589 7.26367C16.6589 7.36914 16.6531 7.52734 16.6414 7.73828C16.6414 7.94922 16.6179 8.16016 16.571 8.37109C16.5359 8.57031 16.4714 8.74609 16.3777 8.89844C16.2957 9.05078 16.1726 9.12695 16.0085 9.12695C15.8328 9.12695 15.6628 9.0625 15.4988 8.93359C15.3347 8.79297 15.2 8.6582 15.0945 8.5293C14.9421 8.36523 14.8308 8.18945 14.7605 8.00195C14.6902 7.80273 14.6316 7.59766 14.5847 7.38672C14.5378 7.17578 14.4851 6.9707 14.4265 6.77148C14.3679 6.56055 14.28 6.36719 14.1628 6.19141C13.9753 5.92188 13.7937 5.65234 13.6179 5.38281C13.4539 5.10156 13.2898 4.82031 13.1257 4.53906C12.9968 4.32812 12.8855 4.18164 12.7917 4.09961C12.698 4.01758 12.5984 3.96484 12.4929 3.94141C12.3875 3.90625 12.2644 3.88867 12.1238 3.88867C11.9949 3.88867 11.8308 3.87109 11.6316 3.83594C11.4207 3.80078 11.2097 3.74805 10.9988 3.67773C10.7996 3.60742 10.5945 3.54297 10.3835 3.48438C10.1843 3.41406 9.97925 3.35547 9.76831 3.30859C9.55737 3.25 9.34644 3.2207 9.1355 3.2207C8.79565 3.2207 8.44995 3.27344 8.09839 3.37891C7.74683 3.48438 7.39526 3.61914 7.0437 3.7832C6.69214 3.93555 6.34644 4.09961 6.00659 4.27539C5.66675 4.43945 5.33862 4.58008 5.02222 4.69727C4.72925 5.31836 4.58276 5.98633 4.58276 6.70117C4.58276 7.2168 4.64136 7.63867 4.75854 7.9668C4.87573 8.29492 5.03394 8.57617 5.23315 8.81055C5.44409 9.0332 5.67847 9.23242 5.93628 9.4082C6.20581 9.58398 6.48706 9.77148 6.78003 9.9707C7.08472 10.1699 7.38354 10.3047 7.67651 10.375C7.9812 10.4336 8.30933 10.4629 8.66089 10.4629C8.86011 10.4629 9.05347 10.457 9.24097 10.4453C9.44019 10.4336 9.6394 10.4277 9.83862 10.4277C10.0613 10.4277 10.2722 10.457 10.4714 10.5156C10.6707 10.5742 10.864 10.6445 11.0515 10.7266C11.2507 10.7969 11.45 10.8613 11.6492 10.9199C11.8484 10.9785 12.0535 11.0078 12.2644 11.0078C12.4636 11.0078 12.6511 10.9961 12.8269 10.9727C13.0144 10.9492 13.2019 10.9375 13.3894 10.9375C13.5535 10.9375 13.7 10.9785 13.8289 11.0605C13.9578 11.1309 14.0867 11.2188 14.2156 11.3242C14.3445 11.418 14.4734 11.5059 14.6023 11.5879C14.7429 11.6699 14.8953 11.7168 15.0593 11.7285C15.2937 11.8457 15.4871 11.9512 15.6394 12.0449C15.7917 12.1387 15.9265 12.2383 16.0437 12.3438C16.1726 12.4492 16.2898 12.5781 16.3953 12.7305C16.5125 12.8828 16.6414 13.0703 16.782 13.293C16.9109 13.5156 17.0808 13.709 17.2917 13.873C17.5027 14.0371 17.6726 14.2363 17.8015 14.4707C17.8484 14.5527 17.8777 14.6523 17.8894 14.7695C17.9011 14.875 17.9187 14.9805 17.9421 15.0859C17.9656 15.1797 18.0007 15.2676 18.0476 15.3496C18.1062 15.4199 18.1941 15.4609 18.3113 15.4727C18.323 15.6016 18.3289 15.7305 18.3289 15.8594C18.3406 15.9766 18.3464 16.0996 18.3464 16.2285ZM41.9714 1.16406C41.9714 1.22266 41.9714 1.27539 41.9714 1.32227C41.9714 1.35742 41.9656 1.4043 41.9539 1.46289C41.9304 1.43945 41.9187 1.42188 41.9187 1.41016C41.8601 1.71484 41.7546 1.98438 41.6023 2.21875C41.45 2.45312 41.2566 2.67578 41.0222 2.88672C40.7761 3.12109 40.5886 3.31445 40.4597 3.4668C40.3308 3.60742 40.2312 3.75977 40.1609 3.92383C40.0906 4.07617 40.0378 4.25195 40.0027 4.45117C39.9675 4.63867 39.9148 4.89062 39.8445 5.20703C39.7039 5.86328 39.5515 6.50781 39.3875 7.14062C39.2234 7.76172 39.1238 8.40625 39.0886 9.07422C39.0652 9.40234 39.03 9.72461 38.9832 10.041C38.9363 10.3457 38.8718 10.6562 38.7898 10.9727C38.7546 11.0781 38.7371 11.1836 38.7371 11.2891C38.7371 11.4531 38.7664 11.6055 38.825 11.7461C38.8953 11.875 38.9304 12.0156 38.9304 12.168C38.9304 12.5195 38.8894 12.8711 38.8074 13.2227C38.7371 13.5625 38.6492 13.9082 38.5437 14.2598C38.45 14.5996 38.3621 14.9395 38.28 15.2793C38.2097 15.6191 38.1746 15.9648 38.1746 16.3164C38.1746 16.6211 38.2156 16.9141 38.2976 17.1953C38.3914 17.4766 38.4382 17.7695 38.4382 18.0742C38.4382 18.6719 38.3972 19.2578 38.3152 19.832C38.2449 20.4062 38.0925 20.9688 37.8582 21.5195C37.7644 21.7422 37.7058 21.9707 37.6824 22.2051C37.6589 22.4395 37.6355 22.6738 37.6121 22.9082C37.5886 23.1309 37.5476 23.3535 37.489 23.5762C37.4421 23.7988 37.3425 24.0039 37.1902 24.1914C37.1199 24.2852 37.0554 24.3789 36.9968 24.4727C36.9382 24.5664 36.8738 24.6543 36.8035 24.7363C36.7449 24.8066 36.6746 24.8652 36.5925 24.9121C36.5105 24.959 36.3992 24.9824 36.2585 24.9824C35.989 24.9824 35.7195 24.9355 35.45 24.8418C35.1804 24.748 34.9226 24.6543 34.6765 24.5605C34.5125 24.502 34.366 24.3906 34.2371 24.2266C34.1199 24.0625 34.0144 23.8809 33.9207 23.6816C33.8386 23.4707 33.7625 23.2598 33.6921 23.0488C33.6335 22.8379 33.5867 22.6562 33.5515 22.5039C33.4929 22.3164 33.4578 22.1289 33.446 21.9414C33.446 21.7422 33.4402 21.5488 33.4285 21.3613C33.4285 21.1621 33.4226 20.9688 33.4109 20.7812C33.3992 20.582 33.3582 20.3887 33.2878 20.2012C33.1824 19.9316 33.1121 19.6621 33.0769 19.3926C33.0535 19.123 33.0417 18.8477 33.0417 18.5664C33.0417 18.2734 33.0476 17.9863 33.0593 17.7051C33.0828 17.4121 33.0945 17.1191 33.0945 16.8262C33.0945 16.5332 33.0652 16.2402 33.0066 15.9473C32.948 15.6543 32.8777 15.3672 32.7957 15.0859C32.7253 14.793 32.655 14.5059 32.5847 14.2246C32.5144 13.9316 32.4675 13.6387 32.4441 13.3457C32.4207 13.041 32.3562 12.7539 32.2507 12.4844C32.1453 12.2031 32.0925 11.9102 32.0925 11.6055C32.0925 11.4883 32.1101 11.3887 32.1453 11.3066C32.1804 11.2129 32.2156 11.1309 32.2507 11.0605C32.2859 10.9902 32.321 10.9258 32.3562 10.8672C32.3914 10.7969 32.4089 10.7266 32.4089 10.6562C32.4089 10.4688 32.3679 10.2637 32.2859 10.041C32.2156 9.81836 32.1335 9.60156 32.0398 9.39062C31.946 9.16797 31.8582 8.95117 31.7761 8.74023C31.7058 8.5293 31.6707 8.33594 31.6707 8.16016C31.3894 8.20703 31.1785 8.31836 31.0378 8.49414C30.9089 8.6582 30.8152 8.86328 30.7566 9.10938C30.698 9.34375 30.657 9.60156 30.6335 9.88281C30.6101 10.1523 30.5691 10.4102 30.5105 10.6562C30.4636 10.9023 30.3757 11.1191 30.2468 11.3066C30.1296 11.4941 29.9363 11.6172 29.6667 11.6758C29.7253 11.7461 29.7957 11.8281 29.8777 11.9219C29.9714 12.0039 30.0535 12.0977 30.1238 12.2031C30.2058 12.2969 30.2761 12.3965 30.3347 12.502C30.3933 12.5957 30.4226 12.6895 30.4226 12.7832C30.4226 12.9004 30.3992 12.9883 30.3523 13.0469C30.3054 13.0938 30.2527 13.1406 30.1941 13.1875C30.1355 13.2227 30.0828 13.2812 30.0359 13.3633C29.989 13.4336 29.9656 13.5449 29.9656 13.6973C29.9656 14.0371 29.989 14.377 30.0359 14.7168C30.0945 15.0566 30.1238 15.3965 30.1238 15.7363C30.1238 16.0996 30.0593 16.457 29.9304 16.8086C29.8015 17.1484 29.7371 17.5 29.7371 17.8633C29.7371 18.0273 29.7664 18.1504 29.825 18.2324C29.8953 18.3145 29.9304 18.4199 29.9304 18.5488C29.9304 18.6777 29.9011 18.8125 29.8425 18.9531C29.7957 19.082 29.7371 19.2109 29.6667 19.3398C29.5964 19.4688 29.532 19.6035 29.4734 19.7441C29.4265 19.8848 29.4031 20.0312 29.4031 20.1836C29.4031 20.4062 29.4441 20.623 29.5261 20.834C29.6199 21.0332 29.6667 21.25 29.6667 21.4844C29.6667 21.8008 29.614 22.1465 29.5085 22.5215C29.4031 22.8965 29.2507 23.248 29.0515 23.5762C28.864 23.8926 28.6296 24.1621 28.3484 24.3848C28.0671 24.6074 27.7449 24.7188 27.3816 24.7188C27.1472 24.7188 26.9187 24.6719 26.696 24.5781C26.4734 24.4727 26.2742 24.3379 26.0984 24.1738C25.9226 24.0098 25.7761 23.8164 25.6589 23.5938C25.5535 23.3711 25.5007 23.1426 25.5007 22.9082C25.5007 22.627 25.5242 22.3516 25.571 22.082C25.6296 21.8008 25.6589 21.5195 25.6589 21.2383C25.6589 21.0859 25.6355 20.9336 25.5886 20.7812C25.5535 20.6289 25.5066 20.4824 25.448 20.3418C25.3894 20.1895 25.3308 20.043 25.2722 19.9023C25.2136 19.75 25.1726 19.5977 25.1492 19.4453C25.114 19.2578 25.0906 19.0703 25.0789 18.8828C25.0671 18.6953 25.0613 18.502 25.0613 18.3027C25.0613 18.1387 25.0613 17.9746 25.0613 17.8105C25.073 17.6465 25.0789 17.4824 25.0789 17.3184C25.0789 16.9082 25.0437 16.5332 24.9734 16.1934C24.9031 15.8535 24.8269 15.5312 24.7449 15.2266C24.6628 14.9219 24.5867 14.6172 24.5164 14.3125C24.446 14.0078 24.4109 13.6855 24.4109 13.3457C24.4109 13.0762 24.3699 12.8184 24.2878 12.5723C24.2058 12.3145 24.1648 12.0508 24.1648 11.7812C24.1648 11.6523 24.1941 11.5352 24.2527 11.4297C24.3113 11.3242 24.3406 11.207 24.3406 11.0781C24.3406 10.9375 24.2996 10.791 24.2175 10.6387C24.1472 10.4863 24.0652 10.3281 23.9714 10.1641C23.8777 10 23.7898 9.83594 23.7078 9.67188C23.6375 9.50781 23.6023 9.33789 23.6023 9.16211C23.6023 9.0332 23.6316 8.92188 23.6902 8.82812C23.7488 8.73438 23.8132 8.64062 23.8835 8.54688C23.9656 8.44141 24.0359 8.33594 24.0945 8.23047C24.1531 8.125 24.1824 7.99609 24.1824 7.84375V7.49219C24.1824 7.38672 24.1941 7.28125 24.2175 7.17578C24.2527 7.07031 24.3171 6.98242 24.4109 6.91211C24.6921 6.9707 24.8738 7.09375 24.9558 7.28125C25.0496 7.45703 25.1023 7.65625 25.114 7.87891C25.1375 8.10156 25.155 8.32422 25.1667 8.54688C25.1785 8.76953 25.2488 8.95703 25.3777 9.10938C25.448 9.20312 25.5183 9.39062 25.5886 9.67188C25.6707 9.95312 25.741 10.2578 25.7996 10.5859C25.8582 10.9141 25.9109 11.2305 25.9578 11.5352C26.0164 11.8398 26.0574 12.0684 26.0808 12.2207C26.116 12.4551 26.1746 12.6777 26.2566 12.8887C26.3386 13.0996 26.4734 13.2812 26.6609 13.4336C26.5789 13.7031 26.532 13.9902 26.5203 14.2949C26.5203 14.5879 26.5203 14.875 26.5203 15.1562C26.5203 15.2617 26.5203 15.4141 26.5203 15.6133C26.532 15.8125 26.5554 16.0117 26.5906 16.2109C26.6375 16.3984 26.7019 16.5684 26.7839 16.7207C26.8777 16.8613 27.0066 16.9316 27.1707 16.9316C27.5222 16.9316 27.7683 16.8027 27.9089 16.5449C28.0613 16.2754 28.1375 15.9883 28.1375 15.6836C28.1375 15.4375 28.114 15.1914 28.0671 14.9453C28.0203 14.6992 27.9968 14.4531 27.9968 14.207C27.9968 13.9258 28.0496 13.6797 28.155 13.4688C28.2722 13.2461 28.3953 13.0176 28.5242 12.7832C28.7117 12.4551 28.8289 12.0859 28.8757 11.6758C28.9343 11.2539 28.9636 10.8262 28.9636 10.3926C28.9636 10.2051 28.9578 10.0234 28.946 9.84766C28.946 9.66016 28.946 9.48438 28.946 9.32031C28.946 9.12109 28.946 8.92188 28.946 8.72266C28.9578 8.51172 28.9812 8.30664 29.0164 8.10742C29.0515 7.89648 29.1042 7.68555 29.1746 7.47461C29.2449 7.26367 29.3152 7.05859 29.3855 6.85938C29.4558 6.64844 29.5144 6.44336 29.5613 6.24414C29.6199 6.0332 29.6492 5.81641 29.6492 5.59375C29.6492 5.41797 29.6316 5.24805 29.5964 5.08398C29.5613 4.9082 29.5437 4.73242 29.5437 4.55664C29.5437 4.42773 29.5671 4.30469 29.614 4.1875C29.6609 4.05859 29.6843 3.92969 29.6843 3.80078C29.6843 3.53125 29.5964 3.2793 29.4207 3.04492C29.2449 2.79883 29.0222 2.58789 28.7527 2.41211C28.4949 2.22461 28.2136 2.07812 27.9089 1.97266C27.616 1.86719 27.3523 1.81445 27.1179 1.81445C26.8953 1.81445 26.6843 1.87305 26.4851 1.99023C26.321 2.0957 26.1628 2.16602 26.0105 2.20117C25.8582 2.23633 25.7117 2.27148 25.571 2.30664C25.4304 2.3418 25.2898 2.39453 25.1492 2.46484C25.0203 2.53516 24.8972 2.6582 24.78 2.83398C24.7332 2.89258 24.6746 2.97461 24.6042 3.08008C24.5457 3.17383 24.4871 3.2793 24.4285 3.39648C24.3699 3.51367 24.3171 3.625 24.2703 3.73047C24.2351 3.83594 24.2175 3.92383 24.2175 3.99414C24.2175 4.05273 24.2527 4.11133 24.323 4.16992C24.405 4.2168 24.4929 4.27539 24.5867 4.3457C24.6921 4.41602 24.78 4.49805 24.8503 4.5918C24.9324 4.68555 24.9734 4.80859 24.9734 4.96094C24.9734 5.03125 24.9617 5.125 24.9382 5.24219C24.9148 5.34766 24.8796 5.45898 24.8328 5.57617C24.7976 5.68164 24.7449 5.77539 24.6746 5.85742C24.616 5.93945 24.5457 5.98047 24.4636 5.98047C24.3113 5.98047 24.1531 5.88086 23.989 5.68164C23.8367 5.48242 23.6902 5.25391 23.5496 4.99609C23.4089 4.73828 23.28 4.48047 23.1628 4.22266C23.0574 3.96484 22.9695 3.77734 22.8992 3.66016C22.7937 3.47266 22.6882 3.33203 22.5828 3.23828C22.4773 3.14453 22.366 3.08008 22.2488 3.04492C22.1433 3.00977 22.0203 2.98633 21.8796 2.97461C21.739 2.96289 21.575 2.93945 21.3875 2.9043C21.282 2.88086 21.1589 2.8457 21.0183 2.79883C20.8777 2.74023 20.7429 2.66992 20.614 2.58789C20.4968 2.50586 20.3972 2.41211 20.3152 2.30664C20.2332 2.18945 20.1921 2.06641 20.1921 1.9375C20.1921 1.75 20.2625 1.58594 20.4031 1.44531C20.5437 1.30469 20.7136 1.1875 20.9128 1.09375C21.1121 0.988281 21.3171 0.912109 21.5281 0.865234C21.7507 0.818359 21.9382 0.794922 22.0906 0.794922C22.2664 0.794922 22.4363 0.830078 22.6003 0.900391C22.7644 0.970703 22.9285 1.00586 23.0925 1.00586C23.3152 1.00586 23.5261 0.953125 23.7253 0.847656C23.9363 0.730469 24.1707 0.671875 24.4285 0.671875C24.6394 0.671875 24.8386 0.701172 25.0261 0.759766C25.2253 0.806641 25.4246 0.859375 25.6238 0.917969C25.823 0.976562 26.0222 1.03516 26.2214 1.09375C26.4207 1.14063 26.6257 1.16406 26.8367 1.16406C27.071 1.16406 27.2878 1.12305 27.4871 1.04102C27.698 0.947266 27.8972 0.847656 28.0847 0.742188C28.2839 0.636719 28.4832 0.542969 28.6824 0.460938C28.8933 0.367188 29.116 0.320312 29.3503 0.320312C29.8308 0.320312 30.2996 0.378906 30.7566 0.496094C31.2136 0.601562 31.6824 0.654297 32.1628 0.654297C32.2566 0.525391 32.3621 0.419922 32.4792 0.337891C32.6082 0.255859 32.7546 0.214844 32.9187 0.214844C33.1062 0.214844 33.2937 0.255859 33.4812 0.337891C33.6804 0.419922 33.8796 0.513672 34.0789 0.619141C34.2898 0.712891 34.5066 0.800781 34.7292 0.882812C34.9519 0.964844 35.1804 1.00586 35.4148 1.00586C35.6257 1.00586 35.825 0.976562 36.0125 0.917969C36.2117 0.847656 36.405 0.771484 36.5925 0.689453C36.7917 0.607422 36.9968 0.537109 37.2078 0.478516C37.4187 0.408203 37.6472 0.373047 37.8933 0.373047C38.2917 0.373047 38.6843 0.349609 39.071 0.302734C39.4695 0.244141 39.8679 0.214844 40.2664 0.214844C40.5593 0.214844 40.8464 0.25 41.1277 0.320312C41.4207 0.378906 41.6902 0.490234 41.9363 0.654297C41.948 0.736328 41.9539 0.818359 41.9539 0.900391C41.9656 0.982422 41.9714 1.07031 41.9714 1.16406ZM37.8757 3.97656C37.8757 3.67188 37.782 3.39063 37.5945 3.13281C37.407 2.875 37.1667 2.65234 36.8738 2.46484C36.5808 2.27734 36.2644 2.13086 35.9246 2.02539C35.5847 1.91992 35.2625 1.86719 34.9578 1.86719C34.7117 1.86719 34.4832 1.94922 34.2722 2.11328C34.073 2.27734 33.8738 2.42383 33.6746 2.55273C33.4285 2.70508 33.2468 2.93945 33.1296 3.25586C33.0125 3.57227 32.9539 3.86523 32.9539 4.13477C32.9539 4.3457 33.0007 4.5332 33.0945 4.69727C33.1882 4.86133 33.2937 5.01367 33.4109 5.1543C33.5281 5.29492 33.6335 5.42969 33.7273 5.55859C33.821 5.6875 33.8679 5.82227 33.8679 5.96289C33.8679 6.05664 33.8445 6.15039 33.7976 6.24414C33.7625 6.33789 33.7214 6.43164 33.6746 6.52539C33.6394 6.61914 33.5984 6.71875 33.5515 6.82422C33.5164 6.91797 33.4988 7.02344 33.4988 7.14062C33.4988 7.35156 33.5398 7.56836 33.6218 7.79102C33.7039 8.00195 33.7917 8.23047 33.8855 8.47656C33.991 8.71094 34.0847 8.96875 34.1667 9.25C34.2488 9.51953 34.2898 9.81836 34.2898 10.1465C34.2898 10.2988 34.2781 10.4453 34.2546 10.5859C34.2429 10.7266 34.2371 10.873 34.2371 11.0254C34.2371 11.0957 34.2722 11.1484 34.3425 11.1836C34.4128 11.2188 34.4832 11.2656 34.5535 11.3242C34.6355 11.3828 34.7117 11.4766 34.782 11.6055C34.8523 11.7227 34.8875 11.9043 34.8875 12.1504C34.8875 12.3848 34.8523 12.6191 34.782 12.8535C34.7117 13.0762 34.6765 13.3047 34.6765 13.5391V13.6797C34.8054 13.7969 34.9109 13.9199 34.9929 14.0488C35.075 14.1777 35.116 14.3359 35.116 14.5234C35.116 14.6875 35.0925 14.8398 35.0457 14.9805C34.9988 15.1211 34.9578 15.2734 34.9226 15.4375H35.2917C35.573 15.4375 35.7898 15.3848 35.9421 15.2793C36.0945 15.1738 36.1707 14.9629 36.1707 14.6465C36.1707 14.5059 36.1589 14.3652 36.1355 14.2246C36.1238 14.0723 36.1179 13.9199 36.1179 13.7676C36.1179 13.6387 36.1414 13.5098 36.1882 13.3809C36.2468 13.2402 36.3054 13.0996 36.364 12.959C36.4343 12.8184 36.5046 12.6836 36.575 12.5547C36.6453 12.4141 36.698 12.2793 36.7332 12.1504C36.8503 11.7285 36.9265 11.3008 36.9617 10.8672C37.0085 10.4336 37.0613 10.0059 37.1199 9.58398C37.1785 9.17383 37.2605 8.76953 37.366 8.37109C37.4714 7.96094 37.5242 7.55078 37.5242 7.14062C37.5242 6.92969 37.489 6.72461 37.4187 6.52539C37.3484 6.32617 37.3132 6.12695 37.3132 5.92773C37.3132 5.75195 37.3425 5.58789 37.4011 5.43555C37.4597 5.27148 37.5242 5.11328 37.5945 4.96094C37.6648 4.79688 37.7292 4.63867 37.7878 4.48633C37.8464 4.32227 37.8757 4.15234 37.8757 3.97656Z" fill="white"/>
</svg>
